<?xml version="1.0" encoding="utf-8"?>
<!-- Generator: Adobe Illustrator 22.0.1, SVG Export Plug-In . SVG Version: 6.00 Build 0)  -->
<svg version="1.1" id="Layer_1" xmlns="http://www.w3.org/2000/svg" xmlns:xlink="http://www.w3.org/1999/xlink" x="0px" y="0px"
	 viewBox="0 0 1366 768" style="enable-background:new 0 0 1366 768;" xml:space="preserve">
<style type="text/css">
	.st0{fill:#FFFFFF;stroke:#000000;stroke-width:2.8346;stroke-miterlimit:10;}
</style>
<path class="st0" d="M770.4,466.7l7.7-0.3l5.1-13.2l-1.7,22.2l25.4-4.5l2.7-4.5l-10.9,0l3.4-15.9l2.7,11.3l31.2-1.4l-2.1-30.2
	c0,0-6,1.4-6.1,5.9c-0.1,7.2,0.8,17,0.8,17l-3.5,1l0-23.6c0,0,7.9-16.2,7.9-21.8c1.7-0.3-9.7-4-9.7-4s6.9-31,6.4-36.7
	s2.9-18.2-14.7-46.5c-7.9-12.7-44.8-62.1-45.6-61.8l-13.7,0l-5.2-34.6c0,0-7-20.3-8.4-22.5c-1.5-2.2-12.1-29.5-34-19.6
	c-19.1,8.7-9.1,32.1-9.1,32.1l26.3-17.9l3.5,4.6L711,214.2l17,0.1l0,7l-27.8,0.9l6.6,14.7c0,0,2-7.5,7.7-6.1c6.6,1.7,5.8,6.5,9,7.9
	c1.9,0.9,2.1-3.1,2.9-9.3c0.4-2.8,5.8-2.9,7.7-1.6c1.8,1.3,0.3,1.3,2.1,2.5c1.8,1.2-3.2-0.6-3.2-0.6s-2.9-0.6-3.1,1.3
	c-0.2,1.9,0.5,6.1-2.2,10.4c-2.9,4.6-6.4,2.1-12.3-4.8c-2.3-2.6-6.4,2.2-5.1,4.9c2,4.2,9.1,8.6,9.1,8.6s6.6,5.6,17.2-2.8
	c4.9-3.9,3.5-20.7,3.5-20.7s2.6,1.1,2.5,8.2c0,2.6-0.1,4.3-0.3,8.4c-0.5,10-3.1,10.5-3.1,10.5l0.6,7.4l-16.8,0.5
	c0,0-15.1,22.4-16.1,25.6s-31.5,34.6-31.5,34.6l-19-28.3l22.5-20.6l-13.2-20.6l-23.2,14.1l22.4,5.1l-3.6,3.9l-35.3-7.5l34.8-21.8
	l-4.4-5.6L637,252.9l-12.7-10.3l-26.7,16.9l10,18.8l-10.2,7.4l26.3,8.6l-4.6-7.8l24.6,1.8l-0.8-9l7.4,1.2l-0.1,14l-20.7,0.1l4.2,5.9
	l-24-2.9l12.7,16.9l14.4-11.2l38.2,38.2l38.3-44.8l10.3-12.2l2.6,18c0,0-1.4,33.5-2.5,38.9c-0.5,2.3-9.7,29.4-9.7,29.4l-6.9,11.3
	l-74.7-47.4l-30.5,84.4c0,0-17.9-3.1-25.9-2.4c-12.6,1.1-44.1,6.4-46.6,12l71.9,26.3l31.9-100.2l63.9,49l-21.6,25.8
	c0,0-27.9,25.3-29.1,26.6c-1.2,1.3-24.1,20.2-24.1,20.2l71.9,45.3l-8,46.5c0,0-19.4,9.3-23.8,25.3c0,2.3,68.1-2.3,68.1-2.3
	l-5.7-66.8l-77.1-49.7l66.9-56.2c0,0,29.4-38.5,35.2-53.3c17.9-46.1,18.3-88.2,18.3-88.2s34.6,32.5,46.1,69.7
	c8.6,21.7-13.8,51.6-13.8,51.6l-27.7,7.1l-19.1,37.7l19,1.1L770.4,466.7z"/>
</svg>
