<?xml version="1.0" encoding="UTF-8" standalone="no"?>
<!-- Created with Inkscape (http://www.inkscape.org/) -->

<svg
   xmlns:dc="http://purl.org/dc/elements/1.1/"
   xmlns:cc="http://creativecommons.org/ns#"
   xmlns:rdf="http://www.w3.org/1999/02/22-rdf-syntax-ns#"
   xmlns:svg="http://www.w3.org/2000/svg"
   xmlns="http://www.w3.org/2000/svg"
   xmlns:sodipodi="http://sodipodi.sourceforge.net/DTD/sodipodi-0.dtd"
   xmlns:inkscape="http://www.inkscape.org/namespaces/inkscape"
   width="210mm"
   height="297mm"
   viewBox="0 0 210 297"
   version="1.1"
   id="svg3715"
   inkscape:version="0.92.2 (5c3e80d, 2017-08-06)"
   sodipodi:docname="inskape-star-simplified.svg">
  <defs
     id="defs3709" />
  <sodipodi:namedview
     id="base"
     pagecolor="#ffffff"
     bordercolor="#666666"
     borderopacity="1.0"
     inkscape:pageopacity="0.0"
     inkscape:pageshadow="2"
     inkscape:zoom="0.35"
     inkscape:cx="400"
     inkscape:cy="560"
     inkscape:document-units="mm"
     inkscape:current-layer="layer1"
     showgrid="false"
     inkscape:window-width="1280"
     inkscape:window-height="1002"
     inkscape:window-x="1272"
     inkscape:window-y="-8"
     inkscape:window-maximized="1" />
  <metadata
     id="metadata3712">
    <rdf:RDF>
      <cc:Work
         rdf:about="">
        <dc:format>image/svg+xml</dc:format>
        <dc:type
           rdf:resource="http://purl.org/dc/dcmitype/StillImage" />
        <dc:title></dc:title>
      </cc:Work>
    </rdf:RDF>
  </metadata>
  <g
     inkscape:label="Layer 1"
     inkscape:groupmode="layer"
     id="layer1">
    <path
       style="stroke-width:0.26458332"
       d="M 15.906548,207.94438 C 29.199019,188.76136 48.888951,175.3938 66.080338,159.98804 87.873012,140.7025 112.78627,123.19939 127.0856,97.190633 c 5.49978,-10.035563 7.99287,-23.839936 -0.94641,-32.787517 -1.23176,-5.571863 -13.70271,-5.662342 -4.51165,-7.667704 8.10325,-4.743846 22.74948,-11.91612 26.81459,-15.391319 -0.48784,15.313589 3.33496,30.635386 7.0335,45.47288 11.65691,41.115827 35.99702,76.740407 55.56381,114.266587 11.28862,11.20563 -11.42874,12.64159 -18.38073,15.79511 -7.03205,2.01178 -14.24588,8.61135 -15.82022,-2.36577 -13.94578,-24.01099 -36.10644,-42.44001 -60.02203,-56.00749 -26.936935,-14.34579 -57.663214,-21.72865 -88.177132,-21.08967 -5.688199,0.63862 -14.527518,4.20359 -4.249145,-0.92696 11.421517,-6.45086 22.577782,-13.35782 33.67092,-20.35434 35.435157,7.1125 72.050947,7.57416 108.092997,6.02061 38.73068,-1.96531 77.02696,-8.57428 115.14632,-15.25802 7.94889,7.84583 -11.97643,11.10127 -16.31789,15.64456 -9.74333,6.12274 -20.30159,10.12877 -31.7541,11.44966 -54.51676,10.30743 -107.21419,28.11147 -160.481567,43.30296 -12.528926,3.89617 -24.789681,8.86499 -36.084964,15.5843 8.507293,-4.85425 24.170276,-13.94844 28.203068,-16.17033 -4.573609,4.10869 -9.510728,7.31548 -15.423872,9.13099 -8.66765,3.51924 -17.335299,7.03848 -26.002949,10.55772 10.831516,-10.22057 24.797702,-16.32288 37.418486,-24.06327 26.775631,-15.25206 57.633548,-19.9853 86.766538,-28.86199 40.10171,-11.36013 80.09149,-23.23752 120.82308,-32.17502 5.31705,-1.29962 15.29377,-5.68927 4.86285,-0.35511 -7.46431,5.02288 -20.31764,8.66193 -24.00278,15.64006 6.14444,4.48897 -12.09105,1.42984 -15.33169,3.38998 -50.23362,5.32219 -100.65532,10.54221 -151.246342,9.12367 -18.218155,0.22812 -37.025642,-1.12918 -54.84311,-1.45719 10.425387,-6.44187 21.059421,-19.29612 31.870559,-21.04631 35.220322,5.43752 71.136073,14.28578 100.408623,35.59695 19.86693,13.59456 37.1201,30.68208 51.56688,49.89793 -5.28826,7.7053 -22.21633,12.96882 -31.64924,19.81412 -1.45701,-8.6902 -7.31273,-20.36168 -11.48531,-29.88368 -13.298,-29.46702 -30.90122,-56.92157 -41.47388,-87.62139 -5.65969,-16.661354 -11.42418,-33.815472 -12.17027,-51.474397 6.57499,-8.160456 19.78599,-8.004115 28.42415,-14.179205 9.94192,-5.154472 17.42776,11.30605 19.74837,19.519372 1.74213,19.986536 -12.22953,36.883479 -24.9034,50.75779 -26.36292,26.90506 -57.255682,48.99663 -83.19123,76.33082 -2.980749,6.01595 -7.996218,9.15215 -14.115278,11.27967 -8.336198,3.77156 -16.672421,7.54311 -25.008604,11.31469 z"
       id="path20"
       inkscape:connector-curvature="0" />
  </g>
</svg>
