<?xml version="1.0" encoding="UTF-8" standalone="no"?>
<!-- Created with Inkscape (http://www.inkscape.org/) -->

<svg
   xmlns:dc="http://purl.org/dc/elements/1.1/"
   xmlns:cc="http://creativecommons.org/ns#"
   xmlns:rdf="http://www.w3.org/1999/02/22-rdf-syntax-ns#"
   xmlns:svg="http://www.w3.org/2000/svg"
   xmlns="http://www.w3.org/2000/svg"
   xmlns:sodipodi="http://sodipodi.sourceforge.net/DTD/sodipodi-0.dtd"
   xmlns:inkscape="http://www.inkscape.org/namespaces/inkscape"
   width="210mm"
   height="297mm"
   viewBox="0 0 210 297"
   version="1.1"
   id="svg3715"
   inkscape:version="0.92.2 (5c3e80d, 2017-08-06)"
   sodipodi:docname="inskape-star-original.svg">
  <defs
     id="defs3709" />
  <sodipodi:namedview
     id="base"
     pagecolor="#ffffff"
     bordercolor="#666666"
     borderopacity="1.0"
     inkscape:pageopacity="0.0"
     inkscape:pageshadow="2"
     inkscape:zoom="0.35"
     inkscape:cx="400"
     inkscape:cy="560"
     inkscape:document-units="mm"
     inkscape:current-layer="layer1"
     showgrid="false"
     inkscape:window-width="1280"
     inkscape:window-height="1002"
     inkscape:window-x="1272"
     inkscape:window-y="-8"
     inkscape:window-maximized="1" />
  <metadata
     id="metadata3712">
    <rdf:RDF>
      <cc:Work
         rdf:about="">
        <dc:format>image/svg+xml</dc:format>
        <dc:type
           rdf:resource="http://purl.org/dc/dcmitype/StillImage" />
        <dc:title></dc:title>
      </cc:Work>
    </rdf:RDF>
  </metadata>
  <g
     inkscape:label="Layer 1"
     inkscape:groupmode="layer"
     id="layer1">
    <path
       id="path20"
       d="m 15.906548,207.94438 c 3.631283,-5.96486 8.550462,-10.99848 13.459109,-15.90866 10.539669,-10.16031 21.894474,-19.4247 33.039372,-28.90312 13.041389,-11.20787 26.401919,-22.08453 38.872711,-33.93913 2.3592,-2.24263 4.64033,-4.56599 6.96049,-6.84898 7.21104,-7.6269 14.09159,-15.72534 18.84737,-25.153857 2.23989,-4.440666 2.46607,-5.65081 3.97016,-10.199129 1.16059,-4.577742 1.66736,-9.311145 0.23974,-13.889363 -0.58275,-1.86881 -1.10467,-2.637965 -2.01961,-4.311491 -1.9517,-2.997549 -4.16089,-5.908188 -6.75583,-8.383058 -0.66836,-0.628674 -3.63726,-3.214474 -4.65387,-2.124099 -0.16142,0.173135 -0.1586,0.446071 -0.2379,0.669107 10.65461,-5.930228 21.40105,-11.698385 31.96381,-17.790686 0.20542,-0.11848 -0.42634,-0.301241 -0.66055,-0.264136 -0.21807,0.03455 -0.37922,0.254992 -0.48942,0.446315 -0.61056,1.060071 -0.33244,2.79114 -0.30237,3.920289 0.26379,5.923295 1.14798,11.77255 2.1272,17.6121 1.23347,7.357581 2.68235,14.700528 4.6421,21.903558 1.56383,5.747853 2.64981,8.738578 4.55258,14.465135 5.8551,16.937415 13.75645,33.063855 22.27345,48.797305 7.2548,12.77663 14.3006,25.66692 21.35857,38.55235 3.22216,5.40902 5.93324,11.10889 9.12066,16.53537 10.93653,8.90884 -13.76868,9.70756 -32.01766,18.58293 -0.39483,0.19203 -0.241,-0.84555 -0.39786,-1.25562 -0.8023,-2.09746 -1.17547,-2.63717 -2.30028,-4.80158 -3.49737,-6.10843 -7.35354,-12.02703 -11.86444,-17.44289 -3.75036,-4.50274 -5.8262,-6.45316 -9.97679,-10.70533 -10.50747,-10.17746 -22.10386,-19.3265 -34.74201,-26.7327 -2.69511,-1.57939 -5.49005,-2.98191 -8.23507,-4.47287 -14.118784,-7.03181 -29.17306,-12.06124 -44.607801,-15.27039 -2.846527,-0.59184 -5.722323,-1.03293 -8.583485,-1.5494 -10.198153,-1.55337 -20.529997,-2.46592 -30.849596,-2.06661 -13.625037,1.45053 -21.1535351,10.69568 29.421775,-21.2813 0.543684,-0.34376 1.237609,0.35699 1.86868,0.48153 2.490653,0.49153 5.003827,0.86276 7.497368,1.33941 19.962066,3.49865 40.306489,4.2265 60.522339,4.92542 25.47432,0.48041 50.97754,-1.08381 76.28128,-3.99583 4.67305,-0.53779 9.3327,-1.18615 13.99905,-1.77923 18.03225,-2.54919 36.04447,-5.29176 53.92988,-8.73401 1.36848,-0.26936 2.73299,-0.55983 4.10546,-0.80807 0.0911,-0.0165 4.53178,-0.78767 5.03526,-0.66663 1.34972,0.3245 3.70827,3.74196 2.18969,4.79572 -10.45178,7.25259 -22.17904,12.46794 -33.26857,18.70191 -7.49142,1.90207 -15.09927,3.21187 -22.68355,4.67936 -15.33463,2.83417 -30.45898,6.65825 -45.5244,10.65605 -19.34892,5.05034 -38.50117,10.81042 -57.71338,16.34777 -14.77275,4.2848 -29.46375,8.84673 -44.268126,13.0227 -9.750629,2.83218 -19.373739,5.97229 -28.623479,10.17524 -1.870427,0.86931 -5.202132,2.39468 -7.076126,3.35283 -1.873382,0.95784 -3.714477,1.97828 -5.549339,3.008 -0.71452,0.40098 -2.831853,1.64978 -2.121241,1.2419 9.848503,-5.65282 19.68999,-11.31787 29.534987,-16.9768 -1.844423,0.97377 -3.373022,2.41764 -5.08622,3.56383 -1.149104,0.89452 -2.14113,1.95256 -3.209128,2.93852 0,0 -34.463392,13.99283 -34.463392,13.99283 v 0 c 1.13088,-0.92258 2.226371,-1.83854 3.198831,-2.92382 1.330447,-1.44366 -0.148738,0.0504 1.420659,-1.19481 1.351838,-1.07255 2.521828,-2.3946 4.108892,-3.16418 15.427227,-8.94842 30.143201,-18.67585 46.5955,-25.45195 9.065255,-3.62387 18.40108,-6.47924 27.838112,-8.97087 14.1454,-3.74918 28.23003,-7.72493 42.34634,-11.58152 19.28254,-5.36998 38.472,-11.06917 57.77851,-16.35368 15.82752,-4.3852 31.70162,-8.63618 47.75526,-12.12359 8.28184,-1.87401 16.66919,-3.62659 24.54536,-6.88002 -10.06149,5.82485 -20.78724,10.62947 -30.18443,17.47454 -0.98342,0.71633 1.47025,1.94066 2.26064,2.86562 0.165,0.19308 0.80348,0.33113 0.59491,0.47606 -0.32453,0.2255 -0.78854,-0.0738 -1.18366,-0.067 -0.79191,0.0137 -1.58271,0.0706 -2.37262,0.12855 -1.14192,0.0838 -2.28142,0.19764 -3.42213,0.29646 -16.37798,1.52762 -32.72092,3.39511 -49.09246,4.98781 -14.51584,1.37686 -29.02384,2.60292 -43.57292,3.5807 -15.50847,1.04225 -31.03318,1.93598 -46.58728,1.65684 -22.045282,-0.0784 -44.106637,0.12607 -66.121955,-1.26376 -4.802767,-0.20101 -4.625453,-0.24205 -8.984154,-0.26665 -0.824796,-0.005 -3.115723,0.53502 -2.474373,0.0164 9.479269,-7.66556 19.589901,-14.51568 29.382799,-21.77629 0.07425,-0.055 -0.151196,0.10638 -0.226796,0.15957 0.329285,0.0936 0.658572,0.18717 0.987857,0.28075 9.206616,1.55728 18.456317,2.89516 27.558727,5.02015 18.264805,4.28106 36.509065,9.1613 53.218585,17.93268 2.77727,1.53948 5.59161,3.01391 8.3318,4.61845 12.93358,7.57336 24.99948,16.62699 36.10017,26.68218 4.69127,4.34861 6.58651,5.95332 10.90925,10.53328 4.97488,5.27091 9.45408,10.97659 14.01869,16.59678 4.391,5.32515 0.22118,0.23071 3.56498,4.40102 0.30756,0.38358 1.35314,0.87869 0.93642,1.13958 -10.6112,6.64317 -21.80629,12.30787 -32.58566,18.67454 -0.16468,0.0973 0.4657,0.4612 0.5042,0.27385 0.0769,-0.3741 -0.22356,-0.7304 -0.33534,-1.09559 -1.74818,-6.0616 -4.16368,-11.93392 -6.57602,-17.75229 -5.94696,-13.43541 -12.08836,-26.79073 -19.06522,-39.73032 -8.50211,-15.87172 -16.89362,-31.87842 -23.36583,-48.70749 -2.11547,-5.31962 -3.59705,-8.86986 -5.46605,-14.22977 -2.43541,-6.984221 -4.44464,-14.117586 -6.47398,-21.226646 -1.33521,-5.705925 -2.65941,-11.422867 -3.57716,-17.212993 -3.32676,-18.184455 0.94041,-8.712062 31.81892,-25.697118 2.36008,1.284263 4.52592,2.870414 6.39492,4.812995 2.46808,3.024643 4.91398,6.103305 6.67263,9.609479 0.38001,0.819206 0.81498,1.615088 1.14003,2.457614 2.5805,6.688637 2.00142,12.35692 0.11888,19.16915 -1.7198,4.705537 -2.26339,6.659702 -4.68067,11.216422 -5.29075,9.973395 -12.6794,18.625437 -20.41571,26.763267 -2.38644,2.34717 -4.73408,4.73446 -7.15932,7.04151 -12.22007,11.6245 -25.31891,22.27945 -37.804759,33.60985 -10.337077,9.07457 -20.867065,17.96297 -30.654489,27.63705 -4.138457,4.26744 -8.423055,8.50774 -11.328276,13.75721 0,0 -33.922208,15.34748 -33.922208,15.34748 z"
       inkscape:connector-curvature="0"
       style="stroke-width:0.26458332" />
  </g>
</svg>
